<?xml version="1.0" encoding="UTF-8"?>
<svg xmlns="http://www.w3.org/2000/svg" version="1.1" viewBox="0 0 792 612">
  <defs>
    <style>
      .cls-1 {
        fill: #f9bf31;
      }

      .cls-1, .cls-2, .cls-3 {
        stroke: #000;
        stroke-miterlimit: 10;
        stroke-width: .25px;
      }

      .cls-4 {
        fill: #231f20;
      }

      .cls-2 {
        fill: #dd1f38;
      }

      .cls-3 {
        fill: #9acb43;
      }
    </style>
  </defs>
  <!-- Generator: Adobe Illustrator 28.7.1, SVG Export Plug-In . SVG Version: 1.2.0 Build 142)  -->
  <g>
    <g id="Layer_1">
      <path class="cls-4" d="M5.274,426.851l50.88-35.142c11.949,5.642,4.612,2.305,11.949,5.642,11.621,5.285,24.156,6.453,36.413,6.453,7.187,0,13.462-.647,18.825-1.945,5.36-1.296,9.838-3.093,13.434-5.392,3.593-2.297,6.275-5.006,8.043-8.13,1.768-3.121,2.651-6.51,2.651-10.164,0-4.95-1.414-9.369-4.242-13.258s-6.689-7.482-11.578-10.782c-4.891-3.298-10.695-6.48-17.412-9.545-6.717-3.063-13.964-6.187-21.742-9.369-19.798-8.247-34.558-18.323-44.279-30.227-9.722-11.901-14.583-26.277-14.583-43.13,0-13.196,2.651-24.54,7.955-34.027,5.303-9.485,12.52-17.293,21.654-23.421,9.131-6.125,19.709-10.633,31.729-13.522,12.02-2.886,24.747-4.331,38.181-4.331,13.196,0,24.893.795,35.088,2.386,10.191,1.591,43.809,8.558,52.412,11.856l-36.22,41.071c-4.242-2.945,3.133,1.724-1.874-.515-5.01-2.237-10.164-4.093-15.467-5.568-5.303-1.472-10.578-2.563-15.82-3.27-5.245-.707-10.225-1.061-14.937-1.061-6.482,0-12.374.619-17.676,1.856-5.303,1.237-9.783,2.978-13.435,5.215-3.654,2.239-6.482,4.922-8.484,8.043-2.005,3.124-3.005,6.628-3.005,10.517,0,4.243,1.118,8.043,3.359,11.402,2.237,3.359,5.419,6.54,9.545,9.545,4.124,3.005,9.131,5.952,15.025,8.838,5.891,2.889,12.551,5.864,19.975,8.927,10.133,4.242,19.237,8.749,27.31,13.522,8.071,4.772,14.995,10.164,20.77,16.174,5.772,6.01,10.191,12.876,13.257,20.593,3.063,7.72,4.596,16.704,4.596,26.957,0,14.141-2.682,26.014-8.043,35.618-5.364,9.607-12.639,17.384-21.831,23.333-9.191,5.953-19.886,10.225-32.083,12.816-12.197,2.591-25.073,3.889-38.623,3.889-13.906,0-27.133-1.18-39.683-3.535-12.551-2.357-52.842-13.601-62.034-18.315Z"/>
      <path class="cls-4" d="M468.255,190.801l-79.352,230.347c-4.768,13.842-17.796,23.133-32.436,23.133h-15.664c-14.688,0-27.746-9.35-32.478-23.254l-78.348-230.226h61.514l52.853,176.411c2.829,9.545,4.535,17.972,5.126,25.278h1.061c.824-7.895,2.651-16.555,5.48-25.985l52.498-175.704h59.747Z"/>
      <path class="cls-4" d="M555.755,444.282h-57.095v-253.48l57.095,35.224v218.257Z"/>
      <path class="cls-4" d="M786.726,443.267c-18.502,8.957-42.66,13.434-72.473,13.434-38.888,0-69.469-11.43-91.741-34.293-22.272-22.86-33.409-54.322-33.409-92.387,0-40.537,12.521-73.415,37.563-98.635,25.04-25.217,57.538-37.828,97.486-37.828,24.747,0,45.605,3.124,62.574,9.368l-34.874,40.77c-16.413-.882-1.132-.485-23.104-.997-23.799-.555-43.014,7.485-57.626,22.449-14.613,14.967-21.918,35.237-21.918,60.807,0,24.512,6.893,45.045,20.681,59.598,13.788,14.555,32.348,21.83,55.681,21.83,22.272,0,5.167.145,23.63-.973l37.53,36.857Z"/>
      <g>
        <polygon class="cls-3" points="483.462 91.644 528.828 105.731 570.864 90.511 525.929 78.432 483.462 91.644"/>
        <path class="cls-1" d="M529.159,143.108l-25-5.939c-.664,1.394-2.27,2.177-3.89,1.806-1.898-.425-3.093-2.257-2.668-4.089.412-1.832,2.284-2.974,4.169-2.549,1.62.372,2.722,1.766,2.748,3.319l24.54,5.884c.052.012.101-.027.101-.08l-.054-13.636-.013-1.593-.08-20.392-38.739-11.816-2.005-.611-5.071-1.553.199,4.527.08,1.779.783,17.909.066,1.593.319,7.076c.013,0,0,.013,0,.013l.159,3.744.093,2.005v.013l10.568,16.197,33.933,7.692-.238-11.298ZM529.265,169.031l-.013-1.58-.04-11.497-34.743-7.873-9.439-14.484.69,15.759,25.928,14.099.027.013,5.005,2.708.013.013,12.586,6.837-.013-3.996Z"/>
        <path class="cls-2" d="M568.389,122.681c.372-.372.651-.836.81-1.341l-.81,1.341ZM568.389,122.681c.372-.372.651-.836.81-1.341l-.81,1.341ZM568.389,122.681c.372-.372.651-.836.81-1.341l-.81,1.341ZM568.389,122.681c.372-.372.651-.836.81-1.341l-.81,1.341ZM568.389,122.681c.372-.372.651-.836.81-1.341l-.81,1.341ZM568.389,122.681c.372-.372.651-.836.81-1.341l-.81,1.341ZM568.389,122.681c.372-.372.651-.836.81-1.341l-.81,1.341ZM568.389,122.681c.372-.372.651-.836.81-1.341l-.81,1.341ZM568.389,122.681c.372-.372.651-.836.81-1.341l-.81,1.341ZM568.389,122.681c.372-.372.651-.836.81-1.341l-.81,1.341ZM568.389,122.681c.372-.372.651-.836.81-1.341l-.81,1.341ZM539.208,132.532c-1.872.465-3.77-.651-4.209-2.483-.438-1.819.73-3.677,2.615-4.129,1.872-.465,3.77.651,4.208,2.483.159.664.106,1.328-.133,1.938l29.712,17.511-.12-11.789v-.013l-13.86-8.151c-.425.398-.969.704-1.58.85-1.885.465-3.77-.651-4.208-2.483-.451-1.819.717-3.677,2.602-4.129,1.885-.465,3.77.651,4.209,2.483.173.677.106,1.367-.133,1.978l12.957,7.634-.093-9.904-2.788-1.646c-.451.465-1.036.823-1.713.982-1.885.451-3.77-.651-4.209-2.483-.451-1.832.717-3.677,2.602-4.129,1.885-.465,3.77.651,4.208,2.469.159.624.12,1.248-.08,1.819l1.965,1.155-.093-9.984-.013-1.593-.106-10.541-.013-1.593-.08-8.271-42.032,15.214.04,3.266.013,1.58v.013l.12,12.506v.013l.04,2.854v.013l.159,15.413,6.545-1.593,25.769,15.174,9.691-5.417-30.389-17.883c-.438.412-.982.717-1.606.863ZM535.464,141.454l-6.253,1.513.093,9.612.027,1.58.08,7.846.013,1.58v.013l.093,9.28,9.36-5.244,1.593-.89,6.996-3.903,1.58-.903h.013l10.86-6.08-24.454-14.404ZM568.389,122.681c.372-.372.651-.836.81-1.341l-.81,1.341ZM568.389,122.681c.372-.372.651-.836.81-1.341l-.81,1.341ZM568.389,122.681c.372-.372.651-.836.81-1.341l-.81,1.341Z"/>
      </g>
    </g>
  </g>
</svg>