<svg width="32" height="32" viewBox="0 0 19 20" fill="none" xmlns="http://www.w3.org/2000/svg">
  <path d="M10.5272 0.100395C10.5631 0.100439 10.5962 0.108122 10.618 0.113091C10.6431 0.118834 10.6566 0.12136 10.6688 0.12188L10.6678 0.122856C11.8324 0.159488 13.1455 0.239376 14.3572 0.572075C15.5699 0.905068 16.6894 1.49277 17.4588 2.54864C18.2253 3.60057 18.5956 5.00184 18.7684 6.43145C18.9413 7.86254 18.9175 9.33434 18.8885 10.533C18.8614 11.6914 18.8076 13.026 18.532 14.2791C18.2565 15.532 17.7575 16.714 16.8348 17.5594C15.9136 18.4031 14.7147 18.8317 13.4774 19.0525C12.2402 19.2733 10.9542 19.2878 9.85236 19.2967C8.68384 19.3066 7.2399 19.3037 5.85626 19.0867C4.47409 18.8699 3.13752 18.4381 2.19513 17.5799C1.27659 16.743 0.774294 15.5884 0.492981 14.3621C0.21174 13.136 0.149937 11.8283 0.119934 10.6756C0.0889644 9.46547 0.0730746 7.9702 0.243958 6.52129C0.414648 5.0743 0.772781 3.66086 1.49786 2.62188C2.27235 1.51211 3.41128 0.912276 4.64923 0.575981C5.85259 0.249104 7.1584 0.170182 8.32892 0.11602V0.106255H8.4295L10.5262 0.100395H10.5272ZM8.41193 1.01543L8.4129 1.01641C7.30742 1.06986 6.09386 1.14626 4.98615 1.45879C3.88009 1.77086 2.88793 2.31548 2.21759 3.30059C1.58506 4.22997 1.26609 5.51236 1.11505 6.85137C0.964245 8.18836 0.982556 9.57016 1.01447 10.6902C1.04347 11.7427 1.10628 12.9369 1.36993 14.0486C1.63371 15.1607 2.09608 16.1805 2.91486 16.8924C3.70515 17.5796 4.76894 17.9516 5.8963 18.1522C7.02299 18.3525 8.20314 18.3796 9.21954 18.3865L10.0701 18.3875C10.9554 18.3804 11.9304 18.3414 12.8719 18.1922C14.1283 17.9931 15.3123 17.6006 16.1443 16.8426C16.9656 16.0945 17.4164 15.0446 17.6678 13.9051C17.9192 12.7654 17.9688 11.5458 17.9959 10.4666C18.023 9.38833 18.0334 7.97669 17.8543 6.60821C17.6748 5.23709 17.3074 3.92415 16.5906 3.03204C15.9121 2.18703 14.9469 1.70261 13.8895 1.42168C12.8315 1.14064 11.6891 1.06563 10.6649 1.03204V1.03106C10.6295 1.03043 10.5966 1.02069 10.5818 1.01641C10.5722 1.01361 10.5664 1.01155 10.5613 1.01055H10.5506L8.41193 1.01543Z" fill="#275D7E" stroke="#275D7E" stroke-width="0.2"/>
  <path d="M14.9826 4.75665C15.2583 4.79946 15.4368 4.9865 15.5461 5.24297C15.6548 5.49821 15.6982 5.82824 15.7024 6.17266C15.7065 6.51799 15.6714 6.88267 15.6223 7.20977C15.3396 9.08714 14.5874 11.0319 12.7863 11.8816C12.992 12.2707 13.1706 12.8249 13.1789 13.3436C13.1875 13.883 13.0119 14.3976 12.4797 14.6316C11.9515 14.8638 11.4529 14.701 11.0305 14.3865C10.6088 14.0724 10.2551 13.6018 10.008 13.201C9.80521 12.8728 9.64354 12.5268 9.49533 12.1736C9.23115 12.8622 8.84965 13.5336 8.34982 14.0731C7.87066 14.5909 7.13227 14.9746 6.4299 14.5838C5.9527 14.3164 5.80529 13.8096 5.82639 13.2879C5.84671 12.7867 6.02203 12.2597 6.22092 11.8836C5.07007 11.3461 4.26396 10.2601 3.84103 9.0711C3.68134 8.62111 3.48723 7.90364 3.37814 7.18926C3.3236 6.83205 3.2904 6.474 3.29318 6.1502C3.29599 5.82733 3.33503 5.53442 3.42795 5.3084C3.54996 5.01116 3.73127 4.84741 3.94846 4.78594C4.16278 4.72537 4.40276 4.76692 4.63791 4.85821C5.10812 5.04082 5.58601 5.43328 5.86642 5.69219C7.31124 7.03112 8.3254 8.8512 9.26193 10.5672C9.27146 10.5579 9.28298 10.5482 9.29807 10.533C9.3201 10.5108 9.34907 10.4869 9.39182 10.4715L9.39279 10.4705C9.46183 10.4477 9.54032 10.4456 9.60959 10.4695C9.66197 10.4877 9.70922 10.5213 9.74142 10.5711H9.7424C10.4371 9.27334 11.1786 7.95513 12.1057 6.80938C12.6018 6.19514 13.2306 5.51454 13.9035 5.09649C14.3574 4.81436 14.7112 4.71465 14.9826 4.75665ZM6.87521 12.1609C6.73869 12.4156 6.58761 12.8503 6.57443 13.2283C6.56758 13.4258 6.5981 13.6009 6.68088 13.7264C6.76153 13.8486 6.89593 13.9311 7.11447 13.9363C7.36798 13.9428 7.60507 13.8132 7.81662 13.6248C8.02769 13.4368 8.20811 13.195 8.34982 12.99C8.51422 12.7513 8.66746 12.4863 8.78439 12.2176C8.49728 12.3617 8.188 12.3907 7.87912 12.365C7.5375 12.3366 7.19149 12.2415 6.87521 12.1609ZM12.1028 12.1551C11.7917 12.2519 11.4444 12.3473 11.0998 12.3699C10.8 12.3896 10.4999 12.3548 10.2268 12.2186C10.4644 12.7446 10.8249 13.3146 11.2444 13.6756C11.3849 13.7966 11.5908 13.8994 11.7932 13.9285C11.9946 13.9575 12.1851 13.9128 12.3117 13.7518C12.3809 13.6628 12.4201 13.5432 12.4338 13.4041C12.4474 13.2652 12.4356 13.1097 12.4065 12.9529C12.3498 12.6482 12.2274 12.3456 12.1115 12.1561L12.1028 12.1551ZM11.1526 11.1131C10.9323 10.9918 10.7007 10.9394 10.4953 11.0213C10.4044 11.0581 10.336 11.1272 10.3039 11.2068C10.2723 11.2854 10.2753 11.3767 10.3313 11.4647C10.3774 11.5366 10.4617 11.5865 10.5764 11.616C10.6907 11.6454 10.8292 11.653 10.9738 11.6463C11.2242 11.6347 11.4846 11.5784 11.6555 11.5272C11.5232 11.3781 11.3465 11.2198 11.1526 11.1131ZM8.23459 10.9783L8.23557 10.9793C8.0702 10.9959 7.89191 11.0778 7.7258 11.1912C7.58103 11.29 7.44836 11.4109 7.34396 11.5262C7.35784 11.5305 7.37323 11.5364 7.38986 11.5408C7.45035 11.5569 7.50447 11.5685 7.53049 11.575C7.6883 11.6112 7.97646 11.6611 8.23166 11.6443C8.35936 11.6359 8.47469 11.6112 8.56076 11.5633C8.64477 11.5165 8.70132 11.448 8.71701 11.3475C8.73664 11.2195 8.67726 11.1245 8.58127 11.0613C8.4832 10.997 8.34913 10.9674 8.23459 10.9783ZM14.7024 5.64043C14.6653 5.6238 14.6097 5.62706 14.5022 5.65606C14.1508 5.7505 13.7326 6.06799 13.3401 6.44317C12.9494 6.81654 12.5917 7.24062 12.3625 7.53985C11.7056 8.39904 11.1588 9.34594 10.6281 10.2947C11.0822 10.2614 11.524 10.4782 11.8733 10.7557L12.0276 10.8865V10.8875C12.0624 10.92 12.1502 11.0182 12.2297 11.1043C12.2704 11.1484 12.31 11.1898 12.341 11.2205C12.3566 11.2359 12.3696 11.2478 12.3791 11.2557L12.3811 11.2576C12.3848 11.2566 12.3907 11.2557 12.3987 11.2527C12.4159 11.2463 12.438 11.2357 12.4641 11.2225C12.5163 11.196 12.5804 11.1587 12.6457 11.1189C12.7759 11.0397 12.9082 10.9521 12.9533 10.9207L13.2004 10.7225C13.7545 10.2351 14.1475 9.57804 14.3977 8.8709C14.5185 8.52866 14.6813 7.92414 14.7834 7.32207C14.8345 7.02103 14.8699 6.72154 14.8781 6.45684C14.8864 6.19105 14.8665 5.96506 14.8098 5.80743C14.7704 5.69832 14.7374 5.6564 14.7024 5.64043ZM4.32248 5.63946C4.28781 5.65015 4.25672 5.67099 4.23264 5.71075V5.71172C4.18646 5.78753 4.15661 5.90518 4.14182 6.05157C4.12715 6.19677 4.12794 6.36485 4.13693 6.53594C4.14594 6.70693 4.16292 6.88018 4.18283 7.03594L4.24338 7.43145L4.29807 7.72637C4.59505 9.19085 5.23187 10.6265 6.62814 11.2488C6.68724 11.1974 6.74427 11.1398 6.80099 11.077C6.86436 11.0068 6.93017 10.9324 7.00314 10.867C7.36599 10.5436 7.8742 10.2505 8.38596 10.2967C8.33367 10.1697 8.24115 10.0034 8.13986 9.83477C8.03564 9.66123 7.92056 9.47964 7.84299 9.34844C7.4981 8.76768 7.02279 8.01441 6.48264 7.33184C5.94141 6.64793 5.33859 6.04049 4.74045 5.7459C4.6563 5.70489 4.55021 5.65419 4.45139 5.63653C4.40237 5.62782 4.3586 5.62834 4.32248 5.63946Z" fill="#275D7E" stroke="#275D7E" stroke-width="0.1"/>
</svg>
